<?xml version="1.0" encoding="utf-8"?>
<!-- Generator: Adobe Illustrator 18.1.1, SVG Export Plug-In . SVG Version: 6.00 Build 0)  -->
<!DOCTYPE svg PUBLIC "-//W3C//DTD SVG 1.1//EN" "http://www.w3.org/Graphics/SVG/1.1/DTD/svg11.dtd">
<svg version="1.1" id="Layer_1" xmlns="http://www.w3.org/2000/svg" xmlns:xlink="http://www.w3.org/1999/xlink" x="0px" y="0px"
	 viewBox="115.2 -2 615.6 597.3" enable-background="new 115.2 -2 615.6 597.3" xml:space="preserve">
<g id="Text">
	<g>
		<g enable-background="new    ">
			<path fill="#64206D" d="M191.6,501.8c-1.2-2.4-3.5-3.6-6.8-3.6c-1.8,0-3.3,0.5-4.5,1.5c-1.2,1-2.1,2.6-2.8,4.8
				c-0.7,2.2-1.1,5.1-1.4,8.6c-0.3,3.5-0.4,7.9-0.4,13c0,5.5,0.2,9.9,0.6,13.3c0.4,3.4,0.9,6,1.7,7.8c0.8,1.9,1.8,3.1,2.9,3.7
				c1.2,0.6,2.5,1,4.1,1c1.3,0,2.5-0.2,3.6-0.7c1.1-0.4,2.1-1.3,2.9-2.6c0.8-1.3,1.5-3.2,1.9-5.6c0.5-2.4,0.7-5.6,0.7-9.5h14.6
				c0,3.9-0.3,7.6-0.9,11.1c-0.6,3.5-1.7,6.6-3.4,9.2c-1.7,2.6-4,4.7-7,6.2c-3,1.5-6.9,2.2-11.7,2.2c-5.5,0-9.8-0.9-13.1-2.6
				c-3.2-1.8-5.7-4.3-7.4-7.6c-1.7-3.3-2.8-7.3-3.3-11.8c-0.5-4.6-0.8-9.7-0.8-15.2c0-5.5,0.3-10.5,0.8-15.1
				c0.5-4.6,1.6-8.6,3.3-11.9c1.7-3.3,4.2-5.9,7.4-7.7c3.2-1.9,7.6-2.8,13.1-2.8c5.2,0,9.3,0.8,12.3,2.5c3,1.7,5.2,3.8,6.7,6.4
				c1.5,2.6,2.4,5.4,2.8,8.4c0.4,3,0.6,5.8,0.6,8.5h-14.6C193.5,508.1,192.9,504.2,191.6,501.8z"/>
			<path fill="#64206D" d="M215.9,521.6c0.7-3.6,2-6.6,3.6-9c1.7-2.4,3.9-4.2,6.6-5.5c2.7-1.2,6.1-1.9,10.1-1.9
				c4.2-0.1,7.7,0.5,10.4,1.7c2.8,1.2,5,3,6.6,5.4c1.6,2.4,2.8,5.4,3.4,9c0.7,3.6,1,7.8,1,12.6c0,4.7-0.4,8.8-1.1,12.4
				c-0.7,3.6-2,6.6-3.6,9s-3.9,4.2-6.6,5.3s-6.1,1.7-10.1,1.7c-4.2,0.1-7.7-0.5-10.4-1.6c-2.8-1.1-5-2.9-6.6-5.3
				c-1.6-2.4-2.8-5.4-3.4-9c-0.7-3.6-1-7.8-1-12.5C214.7,529.3,215.1,525.2,215.9,521.6z M228.9,541.7c0.1,2.4,0.5,4.4,1,6.1
				c0.5,1.7,1.3,3,2.3,3.9c1,0.9,2.4,1.4,4.1,1.4c2.8,0,4.8-1.5,5.9-4.5c1.1-3,1.6-7.9,1.6-14.7c0-6.8-0.5-11.7-1.6-14.7
				c-1.1-3-3-4.5-5.9-4.5c-1.7,0-3,0.5-4.1,1.4c-1,0.9-1.8,2.3-2.3,4c-0.5,1.7-0.8,3.7-1,6.1c-0.1,2.4-0.2,4.9-0.2,7.7
				C228.7,536.8,228.8,539.3,228.9,541.7z"/>
			<path fill="#64206D" d="M278.5,506.7v5.6h0.2c1.8-2.5,3.7-4.3,5.9-5.4c2.2-1.1,4.8-1.6,7.8-1.6c3.2,0,6,0.7,8.2,2.2
				c2.2,1.5,3.7,3.6,4.4,6.5h0.2c1.1-2.9,2.8-5.1,5.2-6.5c2.4-1.5,5.2-2.2,8.6-2.2c4.7,0,8.1,1.4,10.3,4.2c2.2,2.8,3.3,6.8,3.3,12.1
				v39.6h-14v-38.1c0-2.3-0.4-4.1-1.3-5.3c-0.8-1.2-2.2-1.8-4.2-1.8c-2.2,0-4,0.7-5.3,2.2c-1.3,1.5-2,3.8-2,7.1v35.8h-14v-38.1
				c0-2.3-0.4-4.1-1.3-5.3c-0.8-1.2-2.2-1.8-4.2-1.8c-2.2,0-4,0.7-5.3,2.2c-1.3,1.5-2,3.8-2,7.1v35.8h-14v-54.5H278.5z"/>
			<path fill="#64206D" d="M355.3,506.7v5.8h0.2c1.6-2.6,3.3-4.4,5.2-5.5c1.9-1.1,4.3-1.7,7.1-1.7c5.7,0,10,2.2,12.7,6.7
				c2.7,4.5,4.1,11.8,4.1,21.9s-1.4,17.4-4.1,21.8c-2.7,4.4-6.9,6.6-12.7,6.6c-2.6,0-4.9-0.5-6.7-1.5c-1.9-1-3.5-2.5-5-4.7h-0.2
				v22.6h-14v-72H355.3z M357.3,547.4c0.9,3,2.9,4.5,6,4.5c3,0,5-1.5,5.9-4.5c0.9-3,1.4-7.5,1.4-13.4c0-5.9-0.5-10.4-1.4-13.4
				c-0.9-3-2.9-4.5-5.9-4.5c-3.1,0-5.1,1.5-6,4.5c-0.9,3-1.4,7.5-1.4,13.4C355.9,539.9,356.4,544.4,357.3,547.4z"/>
			<path fill="#64206D" d="M391.9,521.6c0.7-3.6,2-6.6,3.6-9c1.7-2.4,3.9-4.2,6.6-5.5c2.7-1.2,6.1-1.9,10.1-1.9
				c4.2-0.1,7.7,0.5,10.4,1.7c2.8,1.2,5,3,6.6,5.4c1.6,2.4,2.8,5.4,3.4,9c0.7,3.6,1,7.8,1,12.6c0,4.7-0.4,8.8-1.1,12.4
				c-0.7,3.6-2,6.6-3.6,9s-3.9,4.2-6.6,5.3s-6.1,1.7-10.1,1.7c-4.2,0.1-7.7-0.5-10.4-1.6c-2.8-1.1-5-2.9-6.6-5.3
				c-1.6-2.4-2.8-5.4-3.4-9c-0.7-3.6-1-7.8-1-12.5C390.8,529.3,391.1,525.2,391.9,521.6z M404.9,541.7c0.1,2.4,0.5,4.4,1,6.1
				c0.5,1.7,1.3,3,2.3,3.9c1,0.9,2.4,1.4,4.1,1.4c2.8,0,4.8-1.5,5.9-4.5c1.1-3,1.6-7.9,1.6-14.7c0-6.8-0.5-11.7-1.6-14.7
				c-1.1-3-3-4.5-5.9-4.5c-1.7,0-3,0.5-4.1,1.4c-1,0.9-1.8,2.3-2.3,4c-0.5,1.7-0.8,3.7-1,6.1c-0.1,2.4-0.2,4.9-0.2,7.7
				C404.7,536.8,404.8,539.3,404.9,541.7z"/>
			<path fill="#64206D" d="M454.6,506.7v6.4h0.2c1.5-2.7,3.4-4.7,5.8-5.9c2.4-1.2,5.1-1.9,8.1-1.9c4.5,0,7.9,1.2,10.3,3.6
				s3.6,6.4,3.6,11.8v40.4h-14v-37.6c0-2.8-0.5-4.8-1.4-5.9c-0.9-1.1-2.5-1.7-4.6-1.7c-4.9,0-7.4,3-7.4,9v36.2h-14v-54.5H454.6z"/>
			<path fill="#64206D" d="M503.8,540.5c0,1.6,0.1,3.2,0.4,4.7c0.2,1.5,0.6,2.9,1.2,4.1c0.5,1.2,1.2,2.1,2.1,2.8
				c0.9,0.7,2,1.1,3.2,1.1c2.4,0,4.1-0.8,5.2-2.5c1.1-1.7,1.8-4.3,2.2-7.7h12.6c-0.3,6.3-2,11.2-5.1,14.5c-3.1,3.3-8,5-14.7,5
				c-5.1,0-9-0.8-11.8-2.5c-2.8-1.7-4.9-3.9-6.3-6.7c-1.4-2.8-2.2-5.9-2.5-9.3c-0.3-3.4-0.5-6.9-0.5-10.3c0-3.6,0.3-7.2,0.8-10.5
				c0.5-3.4,1.5-6.4,3-9c1.5-2.6,3.7-4.7,6.5-6.3c2.8-1.6,6.6-2.3,11.3-2.3c4.1,0,7.4,0.7,10,2c2.6,1.3,4.6,3.2,6.1,5.6
				c1.5,2.4,2.5,5.3,3,8.7c0.5,3.4,0.8,7.2,0.8,11.4v3.1h-27.6V540.5z M517.6,522.3c-0.2-1.6-0.6-2.9-1.1-4.1
				c-0.5-1.1-1.2-2-2.1-2.5c-0.9-0.6-2.1-0.9-3.5-0.9c-1.4,0-2.6,0.3-3.5,1s-1.6,1.5-2.2,2.5c-0.5,1-0.9,2.2-1.2,3.5
				c-0.2,1.3-0.4,2.6-0.4,3.8v2.1H518C518,525.7,517.8,523.9,517.6,522.3z"/>
			<path fill="#64206D" d="M552.1,506.7v6.4h0.2c1.5-2.7,3.4-4.7,5.8-5.9c2.4-1.2,5.1-1.9,8.1-1.9c4.5,0,7.9,1.2,10.3,3.6
				s3.6,6.4,3.6,11.8v40.4h-14v-37.6c0-2.8-0.5-4.8-1.4-5.9c-0.9-1.1-2.5-1.7-4.6-1.7c-4.9,0-7.4,3-7.4,9v36.2h-14v-54.5H552.1z"/>
			<path fill="#64206D" d="M606.4,491.2v15.6h8.1v9.5h-8.1v29.5c0,2.2,0.3,3.7,1,4.6c0.6,0.9,2,1.4,4,1.4c0.5,0,1.1,0,1.6-0.1
				c0.5,0,1-0.1,1.5-0.2v9.7c-1.6,0-3.1,0.1-4.5,0.2c-1.5,0.1-3,0.2-4.6,0.2c-2.7,0-4.9-0.2-6.6-0.6c-1.7-0.4-3-1.1-3.9-2.2
				c-0.9-1.1-1.5-2.6-1.9-4.4c-0.3-1.8-0.5-4.1-0.5-6.9v-31.2h-7.1v-9.5h7.1v-15.6H606.4z"/>
		</g>
		<g>
			<circle fill="#BCBEC0" cx="654.2" cy="483.6" r="30.2"/>
			<g enable-background="new    ">
				<path fill="#FFFFFF" d="M645.6,474.4v34.8c0,1.4-0.2,2.6-0.5,3.6c-0.3,1.1-0.8,1.9-1.5,2.6c-0.7,0.7-1.7,1.2-2.9,1.6
					c-1.2,0.4-2.8,0.5-4.6,0.5c-0.5,0-1,0-1.5,0c-0.5,0-1.1-0.1-1.7-0.1v-6.1c0.2,0.1,0.5,0.1,0.7,0.1h0.7c1.4,0,2.2-0.4,2.6-1.2
					c0.3-0.8,0.5-2.1,0.5-3.8v-32.1H645.6z M645.6,463.2v7.2h-8.4v-7.2H645.6z"/>
				<path fill="#FFFFFF" d="M657.6,497.5c0,1.4,0.4,2.6,1.1,3.4c0.7,0.9,1.8,1.3,3.3,1.3c1.3,0,2.3-0.3,3.1-1
					c0.8-0.6,1.2-1.6,1.2-2.9c0-1.1-0.3-1.9-0.9-2.4s-1.3-1-2.1-1.3l-5.9-2.1c-2.3-0.8-4.1-2-5.2-3.4s-1.8-3.4-1.8-5.7
					c0-1.3,0.2-2.6,0.7-3.8c0.4-1.2,1.2-2.2,2.1-3.1c1-0.9,2.2-1.6,3.7-2.1c1.5-0.5,3.4-0.8,5.5-0.8c3.8,0,6.6,0.8,8.4,2.4
					c1.8,1.6,2.7,3.9,2.7,6.9v1.3H666c0-1.7-0.3-2.9-0.8-3.7c-0.5-0.8-1.5-1.2-2.9-1.2c-1.1,0-2,0.3-2.8,0.9
					c-0.8,0.6-1.2,1.5-1.2,2.6c0,0.8,0.3,1.5,0.8,2.2c0.5,0.6,1.5,1.2,2.9,1.6l5,1.7c2.6,0.9,4.5,2.1,5.6,3.5
					c1.1,1.4,1.6,3.4,1.6,5.9c0,1.7-0.3,3.3-0.9,4.5c-0.6,1.3-1.4,2.3-2.5,3.2s-2.3,1.5-3.8,1.8c-1.5,0.4-3.1,0.5-4.9,0.5
					c-2.4,0-4.3-0.2-5.9-0.7s-2.8-1.1-3.7-2c-0.9-0.9-1.5-2-1.9-3.3s-0.5-2.7-0.5-4.3v-1.2h7.5V497.5z"/>
			</g>
		</g>
	</g>
</g>
<g id="Layer_2">
	<g id="Logo_2_">
		<g>
			<path fill="#852B91" d="M714,125.5c-11.1-26.4-26.5-49-46-67.9c-19.7-18.9-43-33.5-70.1-43.9C570.8,3.3,541.4-2,509.4-2
				c-23.8,0-44.9,2.5-63.3,7.4c-9.5,2.6-18.2,5.1-26.3,7.9c10.8,3.2,20.7,6.7,29.3,10.5c15.2,6.6,28.3,13.7,39.3,21.5l-6.9,12.3
				c7.9-1.2,16.6-1.8,26-1.8c22.1,0,43,3.7,62.7,11.1s36.9,17.9,51.6,31.6s26.4,30.2,34.7,49.5c8.4,19.2,12.6,41,12.6,65.1
				c0,23.8-4.4,45.4-13.2,64.8c-8.8,19.4-20.4,36.1-35,49.8c-14.5,13.7-31.3,24.2-50.4,31.6c-19,7.4-39,11.1-59.9,11.1
				c-11.8,0-22.3-0.8-31.3-2.5c-9-1.7-17-3.5-24-5.6c-7.4-2.5-14.3-5.1-20.9-8l8.6-14.7c4.9,2.9,10.8,5.4,17.9,7.4
				c5.7,2,12.8,3.8,21.2,5.3c8.4,1.5,17.9,2.1,28.6,2.1c21.7,0,41.3-3.7,59-11.1c17.7-7.4,32.5-17.4,44.8-30.2
				c12.3-12.7,21.8-27.7,28.6-44.9c6.7-17.2,10.2-35.6,10.2-55.3s-3.4-38.1-10.2-55.3s-16.4-32.2-28.8-44.8
				C601.9,100,586.7,90,568.6,82.6c-18-7.4-38.3-11.1-60.9-11.1c-11.5,0-21.5,0.9-30.1,2.8c-2.2,0.4-4.2,1-6.4,1.5l-47.1,83
				c6.1-6.1,13.3-11.5,21.5-16c6.9-4.1,15.5-7.8,25.8-11.1s21.9-4.9,35-4.9c13.1,0,25.1,2.2,36.3,6.8c11.1,4.5,20.7,10.6,28.8,18.4
				c8.2,7.8,14.6,16.9,19.3,27.4c4.7,10.5,7,21.6,7,33.5c0,11.8-2.2,23-6.7,33.5c-4.5,10.5-10.7,19.6-18.8,27.4
				c-8,7.8-17.3,14-27.9,18.4c-10.6,4.5-22.3,6.7-35,6.7c-12.3,0-23.2-1.6-32.8-4.6c-9.6-3.1-17.9-6.3-24.9-9.5
				c-7.8-4.5-15-9.2-21.5-14.1l-64.6,113.7c11.1,7.8,24.1,15,39.3,21.5c13.1,5.7,28.8,10.8,47,15.4c18.2,4.5,39,6.7,62.3,6.7
				c29.5,0,57.3-5,83.6-15.1c26.3-10.1,49.2-24.5,68.8-43.3c19.7-18.9,35.2-41.5,46.7-67.9c11.5-26.4,17.2-56,17.2-88.8
				C730.5,181,725,151.8,714,125.5z"/>
			<path fill="#852B91" d="M423.9,158.9L423.9,158.9L423.9,158.9L423.9,158.9z"/>
		</g>
		<g>
			<path fill="#903F98" d="M422.1,273.7L422.1,273.7C422.1,273.8,422.1,273.8,422.1,273.7L422.1,273.7z"/>
			<path fill="#903F98" d="M396.8,409c-15.2-6.6-28.3-13.7-39.3-21.5l6.9-12.3c-7.9,1.2-16.6,1.8-26,1.8c-22.1,0-43-3.7-62.7-11.1
				s-36.9-17.9-51.6-31.6s-26.4-30.2-34.7-49.5c-8.4-19.2-12.6-41-12.6-65.1c0-23.8,4.4-45.4,13.2-64.8c8.8-19.4,20.4-36.1,35-49.8
				c14.5-13.7,31.3-24.2,50.4-31.6c19-7.4,39-11.1,59.9-11.1c11.8,0,22.3,0.8,31.3,2.5c9,1.7,17,3.5,24,5.6
				c7.4,2.5,14.3,5.1,20.9,7.9l-8.6,14.7c-4.9-2.9-10.8-5.4-17.9-7.4c-5.7-2-12.8-3.8-21.2-5.3c-8.4-1.5-17.9-2.1-28.6-2.1
				c-21.7,0-41.3,3.7-59,11.1c-17.7,7.4-32.5,17.4-44.8,30.2c-12.3,12.7-21.8,27.7-28.6,44.8c-6.8,17.1-10.2,35.6-10.2,55.3
				s3.4,38.1,10.2,55.3c6.7,17.2,16.4,32.2,28.8,44.9c12.5,12.7,27.7,22.7,45.8,30.2c18,7.4,38.3,11.1,60.9,11.1
				c11.5,0,21.5-0.9,30.1-2.8c2.2-0.4,4.2-1,6.4-1.5l47.1-83c-6.1,6.1-13.3,11.5-21.5,16c-6.9,4.1-15.5,7.8-25.8,11.1
				c-10.3,3.2-21.9,4.9-35,4.9c-13.1,0-25.1-2.2-36.3-6.7c-11.1-4.5-20.7-10.6-28.8-18.4c-8.2-7.8-14.6-16.9-19.3-27.4
				c-4.7-10.5-7-21.6-7-33.5c0-11.8,2.2-23,6.7-33.5c4.5-10.5,10.7-19.6,18.8-27.4c8-7.8,17.3-14,27.9-18.4s22.3-6.7,35-6.7
				c12.3,0,23.2,1.6,32.8,4.6c9.6,3.1,17.9,6.3,24.9,9.5c7.8,4.5,15,9.2,21.5,14.1l0,0l0,0l47.1-83l0,0l10.5-18.4l0,0l6.9-12.3
				c-11.1-7.8-24.1-15-39.3-21.5c-1.5-0.7-2.9-1.2-4.5-1.9c-0.4-0.1-0.8-0.3-1.2-0.4c-1.3-0.6-2.7-1.1-4-1.6
				c-0.6-0.2-1.1-0.4-1.7-0.7c-1.1-0.4-2.1-0.8-3.2-1.2c-0.8-0.3-1.6-0.6-2.5-0.9c-0.7-0.2-1.5-0.4-2.1-0.7
				c-1.7-0.6-3.5-1.1-5.1-1.7c-0.4-0.1-0.9-0.2-1.3-0.4c-1.1-0.3-2.3-0.7-3.6-1.1c-5.6-1.7-11.5-3.4-17.8-4.8
				c-18.2-4.5-39-6.7-62.3-6.7c-29.5,0-57.3,5-83.6,15.1s-49.2,24.5-68.8,43.3s-35.2,41.5-46.7,67.9c-11.5,26.4-17.2,56-17.2,88.8
				c0,32,5.6,61.1,16.5,87.6c11.1,26.5,26.5,49,46,67.9c19.7,18.9,43,33.5,70.1,43.9s56.5,15.6,88.5,15.6c23.8,0,44.9-2.5,63.3-7.4
				c9.5-2.6,18.2-5.1,26.3-7.9C415.3,416.3,405.5,412.7,396.8,409z"/>
		</g>
	</g>
</g>
</svg>
