<?xml version="1.0" encoding="utf-8"?>
<!-- Generator: Adobe Illustrator 18.1.1, SVG Export Plug-In . SVG Version: 6.00 Build 0)  -->
<!DOCTYPE svg PUBLIC "-//W3C//DTD SVG 1.1//EN" "http://www.w3.org/Graphics/SVG/1.1/DTD/svg11.dtd">
<svg version="1.1" id="Layer_1" xmlns="http://www.w3.org/2000/svg" xmlns:xlink="http://www.w3.org/1999/xlink" x="0px" y="0px"
	 viewBox="0 0 248.2 262.7" enable-background="new 0 0 248.2 262.7" xml:space="preserve">
<g>
	<g>
		<path fill="#903F98" d="M116.6,136.9c-2.8,1.7-6.3,3.2-10.5,4.5c-4.2,1.3-8.9,2-14.2,2c-5.3,0-10.2-0.9-14.8-2.8
			c-4.5-1.8-8.4-4.3-11.8-7.5c-3.3-3.2-6-6.9-7.9-11.1c-1.8-4-2.7-8.2-2.9-12.6h-54C0.7,122,2.9,133.5,7.3,144
			c4.5,10.8,10.8,20,18.8,27.6c8,7.7,17.5,13.6,28.5,17.9s23,6.4,36,6.4c9.7,0,18.2-1,25.8-3s13.9-4.2,19.3-6.5
			c6.2-2.8,11.5-6.1,16-9.8l-26.2-46.2C122.8,132.9,119.9,135,116.6,136.9z"/>
	</g>
</g>
<g>
	<g>
		<path fill="#FFFFFF" d="M29.4,107.6c0-8,1.4-15.5,4.1-22.5S40.2,72,45.2,66.9c5-5.2,11.1-9.3,18.2-12.3c7.2-3,15.2-4.5,24-4.5
			c4.3,0,8.2,0.3,11.6,0.9c3.4,0.6,6.3,1.3,8.6,2.1c2.8,0.8,5.2,1.8,7.2,3l3.5-6c-2.7-1.2-5.5-2.2-8.5-3.2c-2.8-0.8-6.1-1.6-9.8-2.2
			c-3.7-0.7-7.9-1-12.8-1c-8.5,0-16.6,1.5-24.4,4.5S48.5,55.4,42.6,61c-5.9,5.6-10.7,12.3-14.3,20.3c-3.6,7.9-5.4,16.7-5.4,26.4
			c0,9.8,1.7,18.7,5.1,26.5c3.4,7.8,8.1,14.5,14.1,20.1c6,5.6,13,9.9,21,12.9s16.5,4.5,25.5,4.5c5,0,9.5-0.4,13.5-1.2
			c4-0.8,7.4-1.8,10.2-2.8c3.2-1.2,6-2.5,8.5-4l-3.5-6c-2.2,1.5-4.7,2.8-7.5,3.8c-2.5,1-5.5,1.9-9,2.6s-7.6,1.1-12.2,1.1
			c-9.2,0-17.4-1.5-24.8-4.5c-7.3-3-13.5-7.1-18.6-12.2c-5.1-5.2-9-11.2-11.8-18.2S29.4,115.6,29.4,107.6z"/>
	</g>
</g>
<g>
	<g>
		<path fill="#852B91" d="M240.8,71.3c-4.5-10.8-10.8-20-18.8-27.6c-8-7.7-17.5-13.6-28.5-17.9s-23-6.4-36-6.4c-9.7,0-18.2,1-25.8,3
			c-7.5,2-13.9,4.2-19.2,6.5c-6.2,2.8-11.5,6.1-16,9.7l26.2,46.2c2.5-2.5,5.4-4.7,8.7-6.5c2.8-1.7,6.3-3.2,10.5-4.5
			c4.2-1.3,8.9-2,14.2-2c5.3,0,10.2,0.9,14.8,2.8c4.5,1.8,8.4,4.3,11.8,7.5c3.3,3.2,6,6.9,7.9,11.1c1.9,4.2,2.9,8.8,2.9,13.6
			c0,4.8-0.9,9.4-2.8,13.6c-1.8,4.3-4.4,8-7.6,11.1c-3.2,3.2-7,5.7-11.4,7.5c-4.3,1.8-9.1,2.8-14.2,2.8c-5,0-9.5-0.6-13.4-1.9
			c-3.9-1.2-7.3-2.5-10.1-3.9c-3.2-1.8-6.1-3.8-8.7-5.8l-26.2,46.2c4.5,3.2,9.8,6.1,16,8.8c5.3,2.3,11.7,4.4,19.1,6.2
			c7.4,1.8,15.9,2.8,25.4,2.8c12,0,23.3-2,34-6.1c10.7-4.1,20-10,28-17.6c8-7.7,14.3-16.9,19-27.6c4.7-10.8,7-22.8,7-36.1
			C247.6,93.9,245.3,82.1,240.8,71.3z"/>
	</g>
</g>
<rect x="97" y="42.9" fill="#FFFFFF" width="23.7" height="16"/>
<g>
	<g>
		<path fill="#FFFFFF" d="M219.5,106c0,8-1.4,15.5-4.1,22.5c-2.8,7-6.6,13.1-11.6,18.2c-5,5.2-11.1,9.2-18.2,12.2
			c-7.2,3-15.2,4.5-24,4.5c-4.3,0-8.2-0.3-11.6-0.9c-3.4-0.6-6.3-1.3-8.6-2.1c-2.8-0.8-5.2-1.8-7.2-3l-3.5,6
			c2.7,1.2,5.5,2.2,8.5,3.2c2.8,0.8,6.1,1.6,9.8,2.2c3.7,0.7,7.9,1,12.8,1c8.5,0,16.6-1.5,24.4-4.5s14.6-7.3,20.5-12.9
			c5.9-5.6,10.7-12.3,14.2-20.2c3.6-7.9,5.4-16.7,5.4-26.4c0-9.8-1.7-18.7-5.1-26.5c-3.4-7.8-8.1-14.5-14.1-20.1
			c-6-5.6-13-9.9-21-12.9S169.3,42,160.3,42c-5,0-9.5,0.4-13.5,1.2c-4,0.8-7.4,1.8-10.2,2.8c-3.2,1.2-6,2.5-8.5,4l3.5,6
			c2.2-1.5,4.7-2.8,7.5-3.8c2.5-1,5.5-1.9,9-2.6s7.6-1.1,12.2-1.1c9.2,0,17.4,1.5,24.8,4.5c7.3,3,13.5,7.1,18.6,12.2
			c5.1,5.2,9,11.2,11.8,18.2S219.5,98,219.5,106z"/>
	</g>
</g>
<g>
	<g>
		<path fill="#903F98" d="M23,109.4c0-0.6,0-1.1,0-1.7c0-9.7,1.8-18.5,5.4-26.4c3.6-7.9,8.3-14.7,14.3-20.2
			c5.9-5.6,12.8-9.9,20.5-12.9s15.9-4.5,24.4-4.5c4.8,0,9.1,0.3,12.8,1c3.7,0.7,6.9,1.4,9.8,2.2c3,1,5.8,2.1,8.5,3.2l-3.5,6
			c-2-1.2-4.4-2.2-7.2-3c-2.3-0.8-5.2-1.5-8.6-2.1c-3.4-0.6-7.3-0.9-11.6-0.9c-8.8,0-16.8,1.5-24,4.5c-7.2,3-13.2,7.1-18.2,12.2
			c-5,5.2-8.9,11.2-11.6,18.2s-4.1,14.5-4.1,22.5c0,0.6,0,1.1,0,1.7h25.1c0-0.3,0-0.7,0-1c0-4.8,0.9-9.4,2.8-13.6
			c1.8-4.2,4.4-8,7.6-11.1c3.2-3.2,7-5.7,11.4-7.5c4.3-1.8,9.1-2.8,14.2-2.8c5,0,9.5,0.6,13.4,1.9c3.9,1.2,7.3,2.5,10.1,3.9
			c3.2,1.8,6.1,3.8,8.8,5.8l26.3-46.2c-4.5-3.2-9.8-6.1-16-8.7c-5.3-2.3-11.7-4.4-19.1-6.2c-7.4-1.8-15.9-2.8-25.4-2.8
			c-12,0-23.3,2-34,6.1c-10.7,4.1-20,10-28,17.6c-8,7.7-14.3,16.9-19,27.6c-4.7,10.8-7,22.8-7,36.1c0,0.3,0,0.7,0,1H23z"/>
	</g>
</g>
<text transform="matrix(1 0 0 1 32.3366 249.2159)" fill="#852B91" font-family="'HelveticaNeue-CondensedBold'" font-size="40">Component</text>
<circle fill="#BCBEC0" cx="232.4" cy="217.2" r="11.9"/>
<text transform="matrix(1 0 0 1 224.6508 226.4922)" fill="#FFFFFF" font-family="'HelveticaNeue-CondensedBold'" font-size="24">js</text>
</svg>
